{
  "source": "C:\\Users\\Peter\\Desktop\\stuff\\MIUN\\quantitative_research\\video_compression\\videos\\BVI-HD\\BVI-HD_CDVL_videos\\ORIG\\CalmingWater_1920x1080_60fps.mp4",
  "output": "C:\\Users\\Peter\\Desktop\\stuff\\MIUN\\quantitative_research\\video_compression\\compressed_videos\\BVI-HD\\vp9\\2\\CalmingWater_1920x1080_60fps_vp9.webm",
  "codec": "vp9",
  "ok": "Input #0, mov,mp4,m4a,3gp,3g2,mj2, from 'C:\\Users\\Peter\\Desktop\\stuff\\MIUN\\quantitative_research\\video_compression\\videos\\BVI-HD\\BVI-HD_CDVL_videos\\ORIG\\CalmingWater_1920x1080_60fps.mp4':\n  Metadata:\n    major_brand     : isom\n    minor_version   : 512\n    compatible_brands: isomiso2avc1mp41\n    encoder         : Lavf54.28.101\n  Duration: 00:00:05.00, start: 0.000000, bitrate: 623787 kb/s\n  Stream #0:0[0x1](und): Video: h264 (High 4:4:4 Predictive) (avc1 / 0x31637661), yuv420p(progressive), 1920x1080, 623782 kb/s, 60 fps, 60 tbr, 60 tbn (default)\n    Metadata:\n      handler_name    : VideoHandler\n      vendor_id       : [0][0][0][0]\n[out#0/webm @ 0000022148999040] Codec AVOption b:a (set bitrate (in bits/s)) has not been used for any stream. The most likely reason is either wrong type (e.g. a video option with no video streams) or that it is a private option of some decoder which was not actually used for any stream.\nStream mapping:\n  Stream #0:0 -> #0:0 (h264 (native) -> vp9 (libvpx-vp9))\nPress [q] to stop, [?] for help\n[libvpx-vp9 @ 0000022149560640] v1.15.2-100-g40561f514\nOutput #0, webm, to 'C:\\Users\\Peter\\Desktop\\stuff\\MIUN\\quantitative_research\\video_compression\\compressed_videos\\BVI-HD\\vp9\\2\\CalmingWater_1920x1080_60fps_vp9.webm':\n  Metadata:\n    major_brand     : isom\n    minor_version   : 512\n    compatible_brands: isomiso2avc1mp41\n    encoder         : Lavf62.3.100\n  Stream #0:0(und): Video: vp9, yuv420p(tv, progressive), 1920x1080, q=2-31, 2000 kb/s, 60 fps, 1k tbn (default)\n    Metadata:\n      encoder         : Lavc62.11.100 libvpx-vp9\n      handler_name    : VideoHandler\n      vendor_id       : [0][0][0][0]\n    Side data:\n      cpb: bitrate max/min/avg: 0/0/0 buffer size: 2000000 vbv_delay: N/A\nframe=    0 fps=0.0 q=0.0 size=       0KiB time=N/A bitrate=N/A speed=N/A elapsed=0:00:00.51    \nframe=    3 fps=2.4 q=60.0 size=       1KiB time=00:00:00.05 bitrate= 101.3kbits/s speed=0.0393x elapsed=0:00:01.27    \nframe=    8 fps=4.5 q=63.0 size=       1KiB time=00:00:00.13 bitrate=  38.0kbits/s speed=0.0744x elapsed=0:00:01.79    \nframe=   12 fps=5.2 q=63.0 size=       1KiB time=00:00:00.20 bitrate=  25.3kbits/s speed=0.0862x elapsed=0:00:02.32    \nframe=   15 fps=5.2 q=63.0 size=       1KiB time=00:00:00.25 bitrate=  20.3kbits/s speed=0.0872x elapsed=0:00:02.86    \nframe=   19 fps=5.6 q=63.0 size=       1KiB time=00:00:00.31 bitrate=  16.0kbits/s speed=0.0934x elapsed=0:00:03.39    \nframe=   23 fps=5.8 q=63.0 size=       1KiB time=00:00:00.38 bitrate=  13.2kbits/s speed=0.0975x elapsed=0:00:03.93    \nframe=   26 fps=5.8 q=63.0 size=       1KiB time=00:00:00.43 bitrate=  11.7kbits/s speed=0.0966x elapsed=0:00:04.48    \nframe=   29 fps=5.8 q=63.0 size=       1KiB time=00:00:00.48 bitrate=  10.5kbits/s speed=0.0963x elapsed=0:00:05.02    \nframe=   33 fps=6.0 q=63.0 size=       1KiB time=00:00:00.55 bitrate=   9.2kbits/s speed=0.0992x elapsed=0:00:05.54    \nframe=   36 fps=5.9 q=63.0 size=       1KiB time=00:00:00.60 bitrate=   8.4kbits/s speed=0.099x elapsed=0:00:06.06    \nframe=   40 fps=6.1 q=63.0 size=       1KiB time=00:00:00.66 bitrate=   7.6kbits/s speed=0.101x elapsed=0:00:06.57    \nframe=   43 fps=6.0 q=56.0 size=       1KiB time=00:00:00.71 bitrate=   7.1kbits/s speed=0.101x elapsed=0:00:07.11    \nframe=   47 fps=6.1 q=63.0 size=       1KiB time=00:00:00.78 bitrate=   6.5kbits/s speed=0.102x elapsed=0:00:07.64    \nframe=   50 fps=6.1 q=63.0 size=       1KiB time=00:00:00.83 bitrate=   6.1kbits/s speed=0.102x elapsed=0:00:08.17    \nframe=   54 fps=6.2 q=63.0 size=       1KiB time=00:00:00.90 bitrate=   5.6kbits/s speed=0.103x elapsed=0:00:08.72    \nframe=   57 fps=6.2 q=63.0 size=       1KiB time=00:00:00.95 bitrate=   5.3kbits/s speed=0.103x elapsed=0:00:09.25    \nframe=   60 fps=6.1 q=63.0 size=       1KiB time=00:00:01.00 bitrate=   5.1kbits/s speed=0.102x elapsed=0:00:09.79    \nframe=   64 fps=6.2 q=63.0 size=       1KiB time=00:00:01.06 bitrate=   4.7kbits/s speed=0.103x elapsed=0:00:10.33    \nframe=   67 fps=6.2 q=56.0 size=       1KiB time=00:00:01.11 bitrate=   4.5kbits/s speed=0.103x elapsed=0:00:10.87    \nframe=   71 fps=6.2 q=63.0 size=       1KiB time=00:00:01.18 bitrate=   4.3kbits/s speed=0.104x elapsed=0:00:11.41    \nframe=   74 fps=6.2 q=63.0 size=       1KiB time=00:00:01.23 bitrate=   4.1kbits/s speed=0.103x elapsed=0:00:11.95    \nframe=   78 fps=6.2 q=63.0 size=       1KiB time=00:00:01.30 bitrate=   3.9kbits/s speed=0.104x elapsed=0:00:12.48    \nframe=   81 fps=6.2 q=63.0 size=       1KiB time=00:00:01.35 bitrate=   3.8kbits/s speed=0.104x elapsed=0:00:13.03    \nframe=   84 fps=6.2 q=63.0 size=       1KiB time=00:00:01.40 bitrate=   3.6kbits/s speed=0.103x elapsed=0:00:13.55    \nframe=   87 fps=6.2 q=63.0 size=       1KiB time=00:00:01.45 bitrate=   3.5kbits/s speed=0.103x elapsed=0:00:14.07    \nframe=   90 fps=6.2 q=63.0 size=       1KiB time=00:00:01.50 bitrate=   3.4kbits/s speed=0.103x elapsed=0:00:14.59    \nframe=   94 fps=6.2 q=63.0 size=       1KiB time=00:00:01.56 bitrate=   3.2kbits/s speed=0.104x elapsed=0:00:15.12    \nframe=   97 fps=6.2 q=56.0 size=       1KiB time=00:00:01.61 bitrate=   3.1kbits/s speed=0.103x elapsed=0:00:15.66    \nframe=  101 fps=6.2 q=63.0 size=       1KiB time=00:00:01.68 bitrate=   3.0kbits/s speed=0.104x elapsed=0:00:16.18    \nframe=  104 fps=6.2 q=63.0 size=       1KiB time=00:00:01.73 bitrate=   2.9kbits/s speed=0.104x elapsed=0:00:16.73    \nframe=  108 fps=6.3 q=63.0 size=       1KiB time=00:00:01.80 bitrate=   2.8kbits/s speed=0.104x elapsed=0:00:17.25    \nframe=  111 fps=6.2 q=63.0 size=       1KiB time=00:00:01.85 bitrate=   2.7kbits/s speed=0.104x elapsed=0:00:17.77    \nframe=  114 fps=6.2 q=63.0 size=       1KiB time=00:00:01.90 bitrate=   2.7kbits/s speed=0.104x elapsed=0:00:18.32    \nframe=  118 fps=6.3 q=63.0 size=       1KiB time=00:00:01.96 bitrate=   2.6kbits/s speed=0.104x elapsed=0:00:18.85    \nframe=  121 fps=6.2 q=56.0 size=       1KiB time=00:00:02.01 bitrate=   2.5kbits/s speed=0.104x elapsed=0:00:19.39    \nframe=  125 fps=6.3 q=63.0 size=       1KiB time=00:00:02.08 bitrate=   2.4kbits/s speed=0.105x elapsed=0:00:19.93    \nframe=  128 fps=6.3 q=63.0 size=       1KiB time=00:00:02.13 bitrate=   2.4kbits/s speed=0.104x elapsed=0:00:20.46    \nframe=  132 fps=6.3 q=63.0 size=     768KiB time=00:00:02.20 bitrate=2859.8kbits/s speed=0.105x elapsed=0:00:21.00    \nframe=  136 fps=6.3 q=63.0 size=     768KiB time=00:00:02.26 bitrate=2775.6kbits/s speed=0.105x elapsed=0:00:21.53    \nframe=  140 fps=6.3 q=63.0 size=     768KiB time=00:00:02.33 bitrate=2696.3kbits/s speed=0.106x elapsed=0:00:22.08    \nframe=  144 fps=6.4 q=63.0 size=     768KiB time=00:00:02.40 bitrate=2621.4kbits/s speed=0.106x elapsed=0:00:22.61    \nframe=  147 fps=6.4 q=63.0 size=     768KiB time=00:00:02.45 bitrate=2567.9kbits/s speed=0.106x elapsed=0:00:23.14    \nframe=  151 fps=6.4 q=63.0 size=     768KiB time=00:00:02.51 bitrate=2499.9kbits/s speed=0.106x elapsed=0:00:23.68    \nframe=  154 fps=6.4 q=63.0 size=     768KiB time=00:00:02.56 bitrate=2451.2kbits/s speed=0.106x elapsed=0:00:24.21    \nframe=  157 fps=6.3 q=63.0 size=     768KiB time=00:00:02.61 bitrate=2404.4kbits/s speed=0.106x elapsed=0:00:24.73    \nframe=  161 fps=6.4 q=63.0 size=     768KiB time=00:00:02.68 bitrate=2344.6kbits/s speed=0.106x elapsed=0:00:25.26    \nframe=  164 fps=6.4 q=56.0 size=     768KiB time=00:00:02.73 bitrate=2301.8kbits/s speed=0.106x elapsed=0:00:25.81    \nframe=  168 fps=6.4 q=63.0 size=     768KiB time=00:00:02.80 bitrate=2246.9kbits/s speed=0.106x elapsed=0:00:26.33    \nframe=  172 fps=6.4 q=63.0 size=     768KiB time=00:00:02.86 bitrate=2194.7kbits/s speed=0.107x elapsed=0:00:26.85    \nframe=  176 fps=6.4 q=63.0 size=     768KiB time=00:00:02.93 bitrate=2144.8kbits/s speed=0.107x elapsed=0:00:27.38    \nframe=  180 fps=6.4 q=63.0 size=     768KiB time=00:00:03.00 bitrate=2097.2kbits/s speed=0.107x elapsed=0:00:27.92    \nframe=  182 fps=6.4 q=55.0 size=     768KiB time=00:00:03.03 bitrate=2074.1kbits/s speed=0.107x elapsed=0:00:28.46    \nframe=  187 fps=6.5 q=63.0 size=     768KiB time=00:00:03.11 bitrate=2018.6kbits/s speed=0.108x elapsed=0:00:28.98    \nframe=  191 fps=6.5 q=63.0 size=     768KiB time=00:00:03.18 bitrate=1976.4kbits/s speed=0.108x elapsed=0:00:29.52    \nframe=  194 fps=6.4 q=55.0 size=     768KiB time=00:00:03.23 bitrate=1945.8kbits/s speed=0.107x elapsed=0:00:30.07    \nframe=  198 fps=6.5 q=63.0 size=     768KiB time=00:00:03.30 bitrate=1906.5kbits/s speed=0.108x elapsed=0:00:30.62    \nframe=  202 fps=6.5 q=63.0 size=     768KiB time=00:00:03.36 bitrate=1868.7kbits/s speed=0.108x elapsed=0:00:31.14    \nframe=  205 fps=6.5 q=63.0 size=     768KiB time=00:00:03.41 bitrate=1841.4kbits/s speed=0.108x elapsed=0:00:31.65    \nframe=  209 fps=6.5 q=63.0 size=     768KiB time=00:00:03.48 bitrate=1806.2kbits/s speed=0.108x elapsed=0:00:32.17    \nframe=  213 fps=6.5 q=63.0 size=     768KiB time=00:00:03.55 bitrate=1772.2kbits/s speed=0.109x elapsed=0:00:32.67    \nframe=  217 fps=6.5 q=63.0 size=     768KiB time=00:00:03.61 bitrate=1739.6kbits/s speed=0.109x elapsed=0:00:33.20    \nframe=  221 fps=6.5 q=63.0 size=     768KiB time=00:00:03.68 bitrate=1708.1kbits/s speed=0.109x elapsed=0:00:33.75    \nframe=  226 fps=6.6 q=63.0 size=     768KiB time=00:00:03.76 bitrate=1670.3kbits/s speed=0.11x elapsed=0:00:34.28    \nframe=  229 fps=6.6 q=63.0 size=     768KiB time=00:00:03.81 bitrate=1648.4kbits/s speed=0.11x elapsed=0:00:34.81    \nframe=  233 fps=6.6 q=63.0 size=     768KiB time=00:00:03.88 bitrate=1620.1kbits/s speed=0.11x elapsed=0:00:35.36    \nframe=  238 fps=6.6 q=63.0 size=     768KiB time=00:00:03.96 bitrate=1586.1kbits/s speed=0.11x elapsed=0:00:35.90    \nframe=  241 fps=6.6 q=63.0 size=     768KiB time=00:00:04.01 bitrate=1566.3kbits/s speed=0.11x elapsed=0:00:36.44    \nframe=  246 fps=6.7 q=63.0 size=     768KiB time=00:00:04.10 bitrate=1534.5kbits/s speed=0.111x elapsed=0:00:36.99    \nframe=  250 fps=6.7 q=63.0 size=     768KiB time=00:00:04.16 bitrate=1509.9kbits/s speed=0.111x elapsed=0:00:37.52    \nframe=  254 fps=6.7 q=63.0 size=     768KiB time=00:00:04.23 bitrate=1486.2kbits/s speed=0.111x elapsed=0:00:38.06    \nframe=  258 fps=6.7 q=63.0 size=    1536KiB time=00:00:04.30 bitrate=2926.3kbits/s speed=0.111x elapsed=0:00:38.58    \nframe=  263 fps=6.7 q=63.0 size=    1536KiB time=00:00:04.38 bitrate=2870.6kbits/s speed=0.112x elapsed=0:00:39.10    \nframe=  268 fps=6.8 q=63.0 size=    1536KiB time=00:00:04.46 bitrate=2817.1kbits/s speed=0.113x elapsed=0:00:39.63    \nframe=  272 fps=6.8 q=63.0 size=    1536KiB time=00:00:04.53 bitrate=2775.6kbits/s speed=0.113x elapsed=0:00:40.16    \nframe=  276 fps=6.8 q=63.0 size=    1536KiB time=00:00:04.60 bitrate=2735.4kbits/s speed=0.113x elapsed=0:00:40.69    \nframe=  276 fps=6.7 q=63.0 size=    1536KiB time=00:00:04.60 bitrate=2735.4kbits/s speed=0.112x elapsed=0:00:41.21    \nframe=  276 fps=6.6 q=63.0 size=    1536KiB time=00:00:04.60 bitrate=2735.4kbits/s speed=0.11x elapsed=0:00:41.73    \nframe=  276 fps=6.5 q=63.0 size=    1536KiB time=00:00:04.60 bitrate=2735.4kbits/s speed=0.109x elapsed=0:00:42.26    \nframe=  276 fps=6.4 q=63.0 size=    1536KiB time=00:00:04.60 bitrate=2735.4kbits/s speed=0.107x elapsed=0:00:42.79    \nframe=  276 fps=6.4 q=63.0 size=    1536KiB time=00:00:04.60 bitrate=2735.4kbits/s speed=0.106x elapsed=0:00:43.31    \n[out#0/webm @ 0000022148999040] video:1775KiB audio:0KiB subtitle:0KiB other streams:0KiB global headers:0KiB muxing overhead: 0.155893%\nframe=  300 fps=6.9 q=63.0 Lsize=    1777KiB time=00:00:05.00 bitrate=2912.2kbits/s speed=0.115x elapsed=0:00:43.47    \n",
  "seconds": 43.905250549316406,
  "probe_out": {}
}